<?xml version="1.0" encoding="UTF-8"?>
<svg id="svg2" xmlns="http://www.w3.org/2000/svg" xmlns:xlink="http://www.w3.org/1999/xlink" viewBox="0 0 400 399.11">
  <defs>
    <style>
      .cls-1, .cls-2 {
        fill: #fff;
      }

      .cls-1, .cls-3, .cls-4, .cls-5 {
        stroke: #fff;
        stroke-linecap: round;
        stroke-linejoin: round;
      }

      .cls-1, .cls-3, .cls-5 {
        fill-rule: evenodd;
        stroke-width: 2.26px;
      }

      .cls-6 {
        fill: #9f9f9f;
      }

      .cls-3 {
        fill: #b3b3b3;
      }

      .cls-4 {
        fill: url(#linear-gradient);
        stroke-width: 5.4px;
      }

      .cls-7, .cls-8 {
        isolation: isolate;
      }

      .cls-9 {
        letter-spacing: -.07em;
      }

      .cls-8 {
        fill: #767676;
        font-family: Arial-BoldMT, Arial;
        font-size: 31.46px;
        font-weight: 700;
      }

      .cls-5 {
        fill: #ccc;
      }
    </style>
    <linearGradient id="linear-gradient" x1="705.52" y1="406.95" x2="703.82" y2="298.95" gradientTransform="translate(-563.25 272.32) rotate(16.32) scale(1 -1)" gradientUnits="userSpaceOnUse">
      <stop offset="0" stop-color="#c2c2c2"/>
      <stop offset="1" stop-color="#9f9f9f"/>
    </linearGradient>
  </defs>
  <g id="rect1017">
    <rect class="cls-2" x="2.5" y="2.5" width="395" height="394.12" rx="4.51" ry="4.51"/>
    <path class="cls-6" d="M392.99,5c1.11,0,2.01.9,2.01,2.01v385.09c0,1.11-.9,2.01-2.01,2.01H7.01c-1.11,0-2.01-.9-2.01-2.01V7.01c0-1.11.9-2.01,2.01-2.01h385.97M392.99,0H7.01C3.14,0,0,3.14,0,7.01v385.09c0,3.87,3.14,7.01,7.01,7.01h385.97c3.87,0,7.01-3.14,7.01-7.01V7.01c0-3.87-3.14-7.01-7.01-7.01h0Z"/>
  </g>
  <g id="g1015">
    <path id="rect1002" class="cls-6" d="M103.88,123.08l76.47-18.17c5.4-1.28,11.06,1.22,12.64,5.6l25.15,69.5c1.58,4.37-1.51,8.96-6.91,10.24l-76.47,18.17c-5.4,1.28-11.06-1.22-12.64-5.6l-25.15-69.5c-1.58-4.37,1.51-8.96,6.91-10.24Z"/>
    <g id="g1000">
      <path id="rect961" class="cls-4" d="M174,65.09l114.82,27.25c2.95.7,4.65,3.21,3.78,5.61l-36.39,100.73c-.87,2.39-3.96,3.77-6.92,3.07l-114.82-27.25c-2.95-.7-4.65-3.21-3.78-5.61l36.39-100.73c.87-2.39,3.96-3.77,6.92-3.07Z"/>
      <g id="g875">
        <polygon id="rect3338" class="cls-5" points="178.93 77.08 277.64 100.5 251.15 173.8 152.45 150.38 178.93 77.08"/>
        <polygon id="rect3342" class="cls-1" points="178.93 77.08 277.64 100.5 265.28 134.71 166.57 111.28 178.93 77.08"/>
        <path id="path3344" class="cls-5" d="M172.6,112.72l10.88-6.89,14.82-4.47,2.1,3.78,5.01-5.65,1.82-.09,4.34-3.96,25.58,37.9"/>
        <path id="path3390-0" class="cls-3" d="M211.58,95.44c-.15,2.88-.4,5.75-.75,8.62-.27,2.18-.59,4.35-.97,6.51l-4.01-2.22-7.54-6.99-1.66,7.82-1.78,3.96.23,5.43,15.4,1.58,18.14.57-5.05-14.89-2.83,1.97-4.15-4.9-5.03-7.45Z"/>
        <path id="path3358" class="cls-5" d="M194.96,123.33l20.84-8.22,4.29-.69,7.35-6.07,6.49-2.3,25.58,37.9"/>
        <path id="path3386" class="cls-3" d="M233.93,106.05l2.46,14.89-1.77,4.9-1.77,4.9,3.37,4.24c1.69-.74,3.54-1.24,5.44-1.49,3.39-.43,6.85-.03,10.28.03,1.39.02,2.82-.01,4.12-.41.33-.1.65-.23.96-.37l-6.03-1.43-5.76-8.54-3.12-9.39-2.58.95-5.6-8.29Z"/>
        <path id="path3370" class="cls-1" d="M182.6,157.53c.48-1.58-.74-3.29,5.25-4.18,7.34-1.09,27.41.16,34.11-2.51,4.95-1.98-11.94-9.49-7.58-12.25,1.97-1.25,13.04-.44,18.29-1.01,4.98-.55,4.21-2.5,8.08-3.38,3.74-.85,14.9.04,16.28-1.45-2.71,1.22-15.03.04-19.85.59-5.09.58-5.49,2.22-11.67,2.44-6.66.24-19.13-.9-22.44.07-6.94,2.04,6.91,9.17-.27,10.55-9.73,1.86-32.56-.07-42.53.52-6.89.41-6.75,1.54-7.79,3.46"/>
      </g>
    </g>
  </g>
  <g id="text1021" class="cls-7">
    <text class="cls-8" transform="translate(99.44 284.42) scale(1.23 1)"><tspan x="0" y="0">NO IMAGE</tspan></text>
    <text class="cls-8" transform="translate(89.38 323.74) scale(1.23 1)"><tspan class="cls-9" x="0" y="0">AV</tspan><tspan x="39.03" y="0">AILABLE</tspan></text>
  </g>
</svg>