<?xml version="1.0" encoding="UTF-8"?>
<svg xmlns="http://www.w3.org/2000/svg" version="1.1" xmlns:cc="http://creativecommons.org/ns#" xmlns:dc="http://purl.org/dc/elements/1.1/" xmlns:inkscape="http://www.inkscape.org/namespaces/inkscape" xmlns:rdf="http://www.w3.org/1999/02/22-rdf-syntax-ns#" xmlns:sodipodi="http://sodipodi.sourceforge.net/DTD/sodipodi-0.dtd" xmlns:svg="http://www.w3.org/2000/svg" viewBox="0 0 397.3 450.2">
  <!-- Generator: Adobe Illustrator 29.1.0, SVG Export Plug-In . SVG Version: 2.1.0 Build 142)  -->
  <defs>
    <style>
      .st0 {
        fill: #fff;
      }

      .st1 {
        fill: #f0be25;
      }

      .st2 {
        fill: #e4a126;
      }

      .st3 {
        fill: #eaebec;
      }
    </style>
  </defs>
  <g id="svg64" inkscape:version="0.92.2 2405546, 2018-03-11" sodipodi:docname="Javascript-shield.svg">
    <sodipodi:namedview id="namedview66" bordercolor="#666666" borderopacity="1" fit-margin-bottom="0" fit-margin-left="0" fit-margin-right="0" fit-margin-top="0" gridtolerance="10" guidetolerance="10" inkscape:current-layer="svg64" inkscape:cx="364.99449" inkscape:cy="300.83113" inkscape:pageopacity="0" inkscape:pageshadow="2" inkscape:window-height="1016" inkscape:window-maximized="1" inkscape:window-width="1920" inkscape:window-x="0" inkscape:window-y="27" inkscape:zoom="1.0628712" objecttolerance="10" pagecolor="#ffffff" showgrid="false"/>
    <path id="path118" class="st0" d="M1.3,0v5c0,2.8,8.1,93.8,17.8,202.3l17.6,197.3,79.3,22.2c43.6,12.2,80.2,22.3,81.3,22.3,1.1,0,38.2-9.9,82.4-22.1,70.9-19.6,80.4-22.6,80.9-25,.7-3.4,35.4-394.9,35.4-399.1V0H1.3Z" inkscape:connector-curvature="0"/>
    <path id="path88" class="st3" d="M116.7,428.2l-80-22.4-1-5.9C34.7,394.7,0,7.2,0,2.1S20.3,0,198.7,0s198.7.1,198.7,2.3c0,9.6-36,402.2-36.9,402.9-1.1,1-156,44.1-161.1,44.9-1.5.2-38.7-9.7-82.7-22h0ZM249.1,349.2c26.9-7.4,49.3-13.9,49.8-14.3s3.6-32.3,7-70.8,6.5-72.5,6.9-75.7l.8-5.7h-116.2v49.3h62.7l-.6,3c-.3,1.6-1.7,15.8-3,31.5-1.4,16.6-3,29.2-3.9,30-.8.8-13.6,4.8-28.4,8.7l-26.9,7.2v25.1c0,17.2.5,25.1,1.4,25.1s23.4-6.1,50.3-13.5h0ZM312.7,151.7c-.9-6.5-8.7-94.2-8.7-97.5s-4.6-2.2-52.7-2.2h-52.7v51.6l23.7.9c13,.5,26.7,1.3,30.4,1.7l6.8.8,1.6,20.2c.9,11.1,2,22.4,2.4,25.2l.8,5h49.2l-.8-5.7Z" inkscape:connector-curvature="0" sodipodi:nodetypes="sccsssccsscsccccccccsscscssscsscccsccsscccc"/>
    <path id="path80" class="st1" d="M116,426.9l-79.3-22.2-17.6-197.3C9.4,98.8,1.4,7.8,1.4,5V0c0,0,197.3,0,197.3,0h197.3v3c0,4.2-34.6,395.7-35.4,399.1-.5,2.4-10.1,5.4-80.9,25-44.2,12.2-81.3,22.2-82.4,22.1-1.1,0-37.7-10.1-81.3-22.3h0ZM249.2,350.1c27.4-7.6,50.2-14.5,50.7-15.3.5-.8,3.8-34.3,7.3-74.5s6.7-74.1,7.1-75.4c.6-2.2-4.1-2.3-84.5-2.3h-85.2l3.6-38.3c2-21.1,3.7-38.4,3.7-38.5,0,0,12.6-.5,27.8-.9,25-.7,76.4,1.3,78.1,3,.6.6,4.9,42.2,4.9,47.8s.4,2.8,25.8,2.8h25.8l-.6-5.7c-.3-3.1-2.5-27.3-4.9-53.7l-4.3-48-99.6-.3c-79.3-.3-99.6,0-99.7,1.3,0,.9-.6,6.8-1.3,13-1.7,15.1-14.7,160.8-14.7,164.8v3.2h169.6l-.8,5c-.4,2.8-1.7,16.7-2.9,31s-2.6,26.4-3,26.8c-1.2,1.2-51.1,14.5-54.2,14.5-1.4,0-14.3-3.2-28.6-7.1l-26-7.1-1-11.2c-.5-6.2-1.3-14.9-1.8-19.5l-.8-8.3h-50.5v5c.2,9.4,6.2,72.3,7.1,73.2,1,1,97.9,28.3,100.9,28.4,1.1,0,24.4-6.2,51.8-13.8h0Z" inkscape:connector-curvature="0" sodipodi:nodetypes="ccsccccccscccccscscsccsssccscscssccccsccscsscccccccc"/>
    <path id="path78" class="st2" d="M116,426.9l-79.3-22.2-17.6-197.3C9.4,98.8,1.4,7.8,1.4,5V0c0,0,197.3,0,197.3,0h197.3v3c0,4.2-34.6,395.7-35.4,399.1-.5,2.4-10.1,5.4-80.9,25-44.2,12.2-81.3,22.2-82.4,22.1-1.1,0-37.7-10.1-81.3-22.3h0ZM263.9,397.2c34.9-9.6,64.1-18.2,64.9-19,1.2-1.3,31.4-331.5,31.3-342.5v-3.7h-161.4v18.7h-46.7c-36.4,0-46.7.4-46.7,1.7,0,.9-.6,6.8-1.3,13-1.7,15.1-14.7,160.8-14.7,164.8v3.2h109.3v38.7c0,30.1-.4,38.7-1.7,38.6-.9,0-13.4-3.2-27.7-7.1l-26-7.1-1-11.2c-.5-6.2-1.3-14.9-1.8-19.5l-.8-8.3h-50.5v5c.2,14.3,6.4,72.7,7.9,73.6.9.5,24.1,7.2,51.5,14.8l49.9,13.8v25.1c0,13.8.4,25.1.9,25.1s29.5-7.9,64.3-17.5h0ZM148,144.7c1.9-20.9,3.7-38.2,4.1-38.5.3-.3,10.9-.8,23.6-1.2l23-.6v78.3h-54.1l3.5-38Z" inkscape:connector-curvature="0" sodipodi:nodetypes="ccsccccccscccscccccccscsscccscscsscccccscsssscscccccs"/>
  </g>
</svg>